<svg xmlns="http://www.w3.org/2000/svg" width="39.756" height="40.246" viewBox="0 0 39.756 40.246">
  <g id="Icon_akar-home-alt1" data-name="Icon akar-home-alt1" transform="translate(-3 -2.64)">
    <path id="Trazado_1" data-name="Trazado 1" d="M41.256,37.3V23.553a8.168,8.168,0,0,0-2.542-5.922L25.692,5.263a4.084,4.084,0,0,0-5.626,0L7.042,17.631A8.168,8.168,0,0,0,4.5,23.553V37.3a4.084,4.084,0,0,0,4.084,4.084H37.172A4.084,4.084,0,0,0,41.256,37.3Z" transform="translate(0 0)" fill="none" stroke="#fff" stroke-linecap="round" stroke-linejoin="round" stroke-width="3"/>
    <path id="Trazado_2" data-name="Trazado 2" d="M13.5,23.176A3.676,3.676,0,0,1,17.176,19.5h3.676a3.676,3.676,0,0,1,3.676,3.676V34.2H13.5Z" transform="translate(3.864 7.183)" fill="none" stroke="#fff" stroke-linecap="round" stroke-linejoin="round" stroke-width="3"/>
  </g>
</svg>
